<svg width="22" height="32" viewBox="0 0 22 32" fill="none" xmlns="http://www.w3.org/2000/svg">
<g clip-path="url(#clip0_83_73)">
<path d="M5.5 31.9999C8.536 31.9999 11 29.6106 11 26.6666V21.3333H5.5C2.464 21.3333 0 23.7226 0 26.6666C0 29.6106 2.464 31.9999 5.5 31.9999Z" fill="#0ACF83"/>
<path d="M0 16.0001C0 13.0561 2.464 10.6667 5.5 10.6667H11V21.3334H5.5C2.464 21.3334 0 18.9441 0 16.0001Z" fill="#A259FF"/>
<path d="M0 5.33333C0 2.38933 2.464 0 5.5 0H11V10.6667H5.5C2.464 10.6667 0 8.27733 0 5.33333Z" fill="#F24E1E"/>
<path d="M11 0H16.5C19.536 0 22 2.38933 22 5.33333C22 8.27733 19.536 10.6667 16.5 10.6667H11V0Z" fill="#FF7262"/>
<path d="M22 16.0001C22 18.9441 19.536 21.3334 16.5 21.3334C13.464 21.3334 11 18.9441 11 16.0001C11 13.0561 13.464 10.6667 16.5 10.6667C19.536 10.6667 22 13.0561 22 16.0001Z" fill="#1ABCFE"/>
</g>
<defs>
<clipPath id="clip0_83_73">
<rect width="22" height="32" fill="white"/>
</clipPath>
</defs>
</svg>
