<svg width="19" height="42" viewBox="0 0 19 42" fill="none" xmlns="http://www.w3.org/2000/svg">
<g clip-path="url(#clip0_348_192)">
<path d="M14.6419 40.7199L15.0447 34.0095L16.1569 32.1113C16.1569 32.1113 13.6256 33.1467 9.38776 33.1467C5.14987 33.1467 2.65694 32.1305 2.65694 32.1305L3.90337 34.2011L4.3443 40.7199C4.3443 41.4187 6.64946 41.9852 9.49315 41.9852C12.3367 41.9852 14.6419 41.4187 14.6419 40.7199ZM13.3714 9.38348L14.2168 6.04241L18.8986 1.11698L17.6646 0.0661621L12.708 5.31297L11.7264 9.30468C10.9876 9.27993 10.2485 9.26763 9.50926 9.2678C4.28901 9.2678 0.0571289 9.86262 0.0571289 10.5962C0.0571289 11.3299 4.28901 11.9246 9.50926 11.9246C14.7294 11.9246 18.9612 11.3299 18.9612 10.5962C18.9612 10.056 16.6661 9.59103 13.3714 9.38348Z" fill="#D34A47"/>
<path d="M12.8795 11.2546C12.8795 11.2546 12.6964 11.2956 12.1578 11.2979C11.6191 11.3002 11.2365 11.2945 11.0842 11.1557C11.0432 11.1184 11.0208 11.0445 11.021 10.9944C11.0214 10.899 11.0891 10.8428 11.1754 10.8077L11.2569 10.9356C11.2215 10.9478 11.2012 10.9623 11.2011 10.9777C11.2008 11.0502 11.752 11.0997 12.1735 11.0944C12.5952 11.0892 13.1046 11.0545 13.1051 10.9831C13.1051 10.9615 13.0665 10.9412 12.9995 10.9251L13.0807 10.7981C13.19 10.832 13.2853 10.8975 13.2851 11.0109C13.2841 11.2037 13.0387 11.233 12.8795 11.2546Z" fill="white"/>
<path d="M18.8893 1.12675C19.007 0.990804 18.8283 0.643079 18.4903 0.350192C18.152 0.0574537 17.7824 -0.0697336 17.6645 0.0662099C17.5467 0.202153 17.7254 0.549878 18.0636 0.842616C18.4017 1.13543 18.7715 1.26276 18.8893 1.12675ZM14.4166 24.3292C14.3057 23.2619 16.7517 21.716 16.1239 21.6665C14.7726 21.7438 14.1 23.2499 13.4201 24.8274C13.1709 25.4055 12.3184 27.8707 11.7592 27.5672C11.2002 27.2639 12.484 25.2367 12.8438 24.0328C12.4286 24.3372 10.906 25.5199 10.5136 24.4123C9.88274 24.9479 8.5347 25.2382 8.68678 23.831C8.35116 24.4254 7.59791 25.2552 6.69378 24.9104C5.50643 24.4577 7.38179 20.6761 7.84811 20.8669C8.3145 21.0576 7.754 21.9191 7.60719 22.2536C7.28434 22.9898 6.91139 23.9152 7.16054 24.1047C7.58738 24.4293 8.7489 22.8768 8.77473 22.8427C8.99196 22.5557 9.61088 20.6784 10.1097 20.894C10.6085 21.1095 8.8655 23.5882 9.51721 24.0801C9.64865 24.1794 10.1864 24.0189 10.5136 23.665C10.7253 23.4361 10.6525 22.9291 11.3581 21.2467C12.0637 19.5644 12.6925 17.4693 13.1764 17.6289C13.6603 17.7884 13.2615 18.8637 13.0879 19.2646C12.2733 21.146 10.8646 24.2542 11.5289 24.0189C12.1932 23.7837 12.5392 23.7699 13.1897 23.0087C13.8402 22.2476 13.8102 20.9939 14.2438 21.0206C14.6776 21.0473 14.6048 21.4493 14.4996 21.7554C14.9263 21.2671 16.5225 20.2388 16.9078 21.2572C17.3643 22.463 14.6242 24.2046 15.3074 24.1158C15.9735 24.0292 17.0526 23.3459 17.5134 22.7245L18.7816 11.3247C18.7816 11.3247 17.5054 12.3807 9.38636 12.3807C1.2672 12.3807 0.123047 11.3467 0.123047 11.3467L1.20278 21.752C1.7759 20.1234 3.13685 16.8293 5.28207 16.9399C6.25789 16.9902 7.56058 18.8689 6.4447 18.9325C5.97238 18.9594 5.92443 17.9948 5.36512 17.8531C4.96152 17.7509 4.39961 18.0789 4.03645 18.4344C3.31223 19.143 1.7546 21.939 1.96041 23.333C2.22262 25.1101 4.41319 22.7154 4.78384 22.0045C5.04486 21.5037 5.22121 20.0198 5.7921 20.1755C6.36306 20.3312 5.7423 21.8625 5.32845 23.2164C4.86355 24.7366 4.61914 26.3403 4.03645 26.1558C3.45369 25.9715 4.40295 24.0089 4.36858 23.665C3.82085 24.1703 2.81177 25.4494 1.52081 24.8163L2.19138 31.2779C2.19138 31.2779 3.97359 32.6858 9.34235 32.6858C14.7111 32.6858 16.5593 31.2999 16.5593 31.2999L17.392 23.8158C16.7107 24.479 14.5547 25.6568 14.4166 24.3292Z" fill="#D34A47"/>
</g>
<defs>
<clipPath id="clip0_348_192">
<rect width="19" height="42" fill="white"/>
</clipPath>
</defs>
</svg>
