<svg width="32" height="32" viewBox="0 0 32 32" fill="none" xmlns="http://www.w3.org/2000/svg">
<path d="M18.874 18.9383C19.1842 19.5672 19.6656 20.0958 20.2628 20.4634C20.86 20.8309 21.5488 21.0226 22.25 21.0163C23.668 21.0163 24.574 20.3073 24.574 19.3283C24.574 18.1553 23.643 17.7393 22.083 17.0563L21.227 16.6893C18.758 15.6373 17.117 14.3193 17.117 11.5333C17.117 8.96627 19.073 7.01327 22.129 7.01327C23.1208 6.9413 24.1119 7.1633 24.9783 7.65153C25.8446 8.13976 26.5478 8.87254 27 9.75827L24.335 11.4693C24.1605 11.0304 23.8566 10.655 23.4636 10.3929C23.0707 10.1309 22.6073 9.99463 22.135 10.0023C21.9292 9.98155 21.7212 10.004 21.5245 10.0681C21.3278 10.1322 21.1467 10.2366 20.9925 10.3746C20.8384 10.5126 20.7148 10.6813 20.6294 10.8697C20.5441 11.0582 20.499 11.2624 20.497 11.4693C20.497 12.4963 21.133 12.9113 22.597 13.5473L23.453 13.9133C26.361 15.1603 28.002 16.4313 28.002 19.2893C28.002 22.3703 25.582 24.0583 22.331 24.0583C21.0647 24.1388 19.8021 23.8512 18.6956 23.2302C17.5891 22.6091 16.6859 21.6812 16.095 20.5583L18.874 18.9383ZM6.786 19.2383C7.324 20.1923 7.813 20.9983 8.986 20.9983C10.11 20.9983 10.82 20.5583 10.82 18.8483V7.21327H14.242V18.8963C14.242 22.4393 12.164 24.0523 9.132 24.0523C8.06099 24.1102 6.99752 23.8426 6.0815 23.2847C5.16548 22.7267 4.43982 21.9045 4 20.9263L6.786 19.2383Z" fill="#F5DE19"/>
</svg>
