<svg width="32" height="31" viewBox="0 0 32 31" fill="none" xmlns="http://www.w3.org/2000/svg">
<g clip-path="url(#clip0_83_89)">
<path d="M26.6875 0H5.3125C2.37849 0 0 2.35946 0 5.27V25.6804C0 28.5909 2.37849 30.9504 5.3125 30.9504H26.6875C29.6215 30.9504 32 28.5909 32 25.6804V5.27C32 2.35946 29.6215 0 26.6875 0Z" fill="#001E36"/>
<path d="M7.20557 21.7043V8.09682C7.20557 7.99762 7.24857 7.94777 7.33444 7.94777L7.47032 7.9474L7.70257 7.94492L8.02532 7.9386L9.10657 7.9159L10.2659 7.89457C10.6737 7.88763 11.0779 7.88391 11.4787 7.88391C12.5662 7.88391 13.4821 8.01882 14.2264 8.28852C14.8979 8.51383 15.5103 8.88483 16.0189 9.37451C16.4502 9.799 16.7834 10.3113 16.9957 10.8759C17.1965 11.4254 17.2983 12.0056 17.2963 12.5901C17.2963 13.726 17.0314 14.663 16.5019 15.401C15.984 16.1211 15.2617 16.6717 14.4269 16.9828L14.3553 17.0088C13.4837 17.3313 12.5184 17.4479 11.4598 17.4552L11.2953 17.4557L11.0512 17.4545L10.9281 17.4527L10.7908 17.4495L10.7081 17.4463L10.6578 17.4437L10.5342 17.4392L10.3831 17.4361L10.1556 17.4345L10.1049 17.4344V21.683C10.1087 21.709 10.1063 21.7356 10.0979 21.7606C10.0895 21.7855 10.0754 21.8082 10.0567 21.8268C10.0379 21.8454 10.015 21.8594 9.98988 21.8677C9.96471 21.8761 9.93794 21.8784 9.91169 21.8747H7.35594C7.25557 21.8747 7.20557 21.8182 7.20557 21.7043V21.7043ZM10.1051 10.5032V14.9414C10.2764 14.9551 10.4482 14.9622 10.6201 14.9627H11.3286C11.817 14.9611 12.3027 14.8889 12.7702 14.7486L12.8634 14.7197C13.2888 14.5943 13.6688 14.3504 13.9583 14.0168C14.2273 13.7021 14.3667 13.2685 14.3763 12.7158L14.3769 12.6539C14.3882 12.242 14.2802 11.8355 14.0656 11.4828C13.84 11.1416 13.514 10.8776 13.1318 10.7267C12.6328 10.5343 12.0998 10.4438 11.5647 10.4606L11.2924 10.4614L11.1207 10.4629L10.9568 10.465L10.7256 10.4694L10.5568 10.4741L10.4692 10.4774L10.3521 10.4828L10.2523 10.4889L10.1954 10.4934L10.1463 10.4981L10.1247 10.5006L10.1051 10.5032V10.5032ZM25.5963 14.1344C25.2218 13.9435 24.8246 13.8001 24.4141 13.7076L24.3191 13.6872C23.8674 13.5844 23.4063 13.5278 22.9429 13.5182L22.8272 13.5169C22.5556 13.5096 22.2844 13.5419 22.0222 13.6127C21.8553 13.6495 21.7069 13.7438 21.6034 13.8788C21.5335 13.9868 21.4963 14.1125 21.4962 14.2409C21.5001 14.3654 21.5454 14.4851 21.6249 14.5815C21.7389 14.7137 21.8758 14.8245 22.0293 14.9085L22.0758 14.9329C22.3819 15.0964 22.6972 15.2422 23.0203 15.3694C23.7408 15.6087 24.4292 15.934 25.0703 16.3384C25.5072 16.6118 25.8687 16.9887 26.1223 17.4351C26.3356 17.8578 26.4424 18.3254 26.4336 18.7979C26.4464 19.422 26.2666 20.035 25.9183 20.5549C25.5454 21.0825 25.0275 21.4927 24.4263 21.7366C23.7967 22.0111 23.0234 22.1528 22.1067 22.1621L22.0114 22.1626C21.4431 22.1683 20.8756 22.119 20.3169 22.0153L20.1974 21.9923C19.7271 21.9067 19.2692 21.7636 18.8343 21.5663C18.7906 21.5439 18.7537 21.5104 18.7273 21.4693C18.7009 21.4281 18.686 21.3807 18.6841 21.332V19.0109C18.6815 18.9884 18.6851 18.9656 18.6946 18.945C18.7041 18.9243 18.719 18.9066 18.7378 18.8937C18.7562 18.8834 18.7774 18.8789 18.7985 18.8808C18.8196 18.8827 18.8396 18.8909 18.8558 18.9044C19.3694 19.2048 19.927 19.424 20.5087 19.5539C21.0214 19.6814 21.5473 19.7493 22.0758 19.7563C22.5766 19.7563 22.9451 19.6923 23.1813 19.5646C23.288 19.5161 23.3782 19.4381 23.4411 19.3398C23.504 19.2415 23.5368 19.1273 23.5356 19.0109C23.5356 18.8267 23.4282 18.6491 23.2136 18.4786C23.1236 18.4072 22.9944 18.3294 22.8264 18.2455L22.7461 18.2063L22.6603 18.1662L22.6153 18.1459L22.5211 18.1045C22.5047 18.0974 22.4883 18.0904 22.4719 18.0834L22.3694 18.0408L22.3161 18.0191L22.2053 17.975L22.1478 17.9527L22.0287 17.9072L21.9041 17.8609C21.23 17.6282 20.5909 17.3059 20.0042 16.9027C19.5846 16.6132 19.2391 16.2303 18.9953 15.7847C18.7842 15.3651 18.6775 14.9014 18.6841 14.4325C18.6829 13.869 18.8389 13.3163 19.1348 12.8354C19.4723 12.3059 19.9568 11.8843 20.5302 11.6216C21.1598 11.3095 21.9468 11.1533 22.8914 11.153C23.4447 11.1486 23.9974 11.1878 24.5444 11.2702C24.9405 11.3201 25.3278 11.424 25.6952 11.579C25.7543 11.5959 25.8019 11.6391 25.8239 11.6962C25.8386 11.7481 25.8457 11.8018 25.8454 11.8559V14.0067C25.8486 14.0575 25.8239 14.1062 25.7811 14.1344C25.7524 14.1485 25.7207 14.1559 25.6887 14.1559C25.6566 14.1559 25.625 14.1485 25.5963 14.1344V14.1344Z" fill="#31A8FF"/>
</g>
<defs>
<clipPath id="clip0_83_89">
<rect width="32" height="31" fill="white"/>
</clipPath>
</defs>
</svg>
