<svg width="28" height="32" viewBox="0 0 28 32" fill="none" xmlns="http://www.w3.org/2000/svg">
<g clip-path="url(#clip0_348_188)">
<path d="M14 0.00549316L28 7.99501V23.9792L14 31.9687L0 23.9792V7.99501L14 0.00549316Z" fill="white"/>
<path d="M25.5012 23.4247L14.465 29.7299V24.8265L21.3435 21.005L25.5012 23.4247ZM26.2566 22.7372V9.5618L22.2205 11.9121V20.3866L26.2566 22.7372ZM2.45662 23.4246L13.4929 29.7247V24.8212L6.61441 21.005L2.45662 23.4247V23.4246ZM1.70117 22.7372V9.5618L5.73744 11.9121V20.3866L1.70117 22.7372ZM2.17148 8.70905L13.4929 2.24913V6.99286L6.23936 11.0168L6.18117 11.0488L2.17148 8.70905ZM25.7812 8.70905L14.465 2.24902V6.99275L21.7133 11.022L21.7714 11.054L25.7812 8.70883V8.70905Z" fill="#8ED6FB"/>
<path d="M13.4929 23.7072L6.70947 19.939V12.4825L13.4929 16.432V23.7072ZM14.465 23.7072L21.2485 19.9444V12.4825L14.465 16.432V23.7072ZM7.16382 11.6191L13.979 7.84021L20.7887 11.6191L13.979 15.5845L7.16382 11.6191Z" fill="#1C78C0"/>
</g>
<defs>
<clipPath id="clip0_348_188">
<rect width="28" height="32" fill="white"/>
</clipPath>
</defs>
</svg>
