<svg width="32" height="32" viewBox="0 0 32 32" fill="none" xmlns="http://www.w3.org/2000/svg">
<g clip-path="url(#clip0_83_94)">
<path d="M3.85625 10.5875L10.2 27.9625C5.7625 25.8125 2.70625 21.2625 2.70625 16C2.70625 14.0688 3.11875 12.2437 3.85625 10.5875ZM24.975 15.3313C24.975 13.6875 24.3875 12.55 23.8813 11.6625C23.2063 10.5688 22.575 9.6375 22.575 8.54375C22.575 7.31875 23.5 6.18125 24.8062 6.18125C24.8625 6.18125 24.9188 6.1875 24.9813 6.19375C22.6125 4.025 19.4625 2.7 16 2.7C11.3562 2.7 7.26875 5.08125 4.8875 8.69375C5.2 8.70625 5.49375 8.7125 5.74375 8.7125C7.13125 8.7125 9.2875 8.54375 9.2875 8.54375C10.0063 8.5 10.0875 9.55625 9.375 9.6375C9.375 9.6375 8.65625 9.71875 7.85625 9.7625L12.7 24.1625L15.6125 15.4375L13.5437 9.7625C12.825 9.71875 12.15 9.6375 12.15 9.6375C11.4312 9.59375 11.5188 8.5 12.2312 8.54375C12.2312 8.54375 14.425 8.7125 15.7312 8.7125C17.1187 8.7125 19.275 8.54375 19.275 8.54375C19.9937 8.5 20.075 9.55625 19.3625 9.6375C19.3625 9.6375 18.6437 9.71875 17.8438 9.7625L22.65 24.0562L23.975 19.625C24.5375 17.7875 24.975 16.4688 24.975 15.3313ZM16.2313 17.1625L12.2437 28.7563C13.4375 29.1063 14.6938 29.3 16 29.3C17.55 29.3 19.0312 29.0312 20.4125 28.5438C20.375 28.4875 20.3438 28.425 20.3188 28.3625L16.2313 17.1625ZM27.6688 9.61875C27.725 10.0437 27.7563 10.4938 27.7563 10.9875C27.7563 12.3375 27.5063 13.85 26.7437 15.75L22.6812 27.4937C26.6375 25.1875 29.2938 20.9062 29.2938 16C29.2938 13.6875 28.7063 11.5125 27.6688 9.61875ZM31.5 16C31.5 24.55 24.5438 31.5 16 31.5C7.45 31.5 0.5 24.5438 0.5 16C0.5 7.45 7.45 0.5 16 0.5C24.5438 0.5 31.5 7.45 31.5 16ZM30.7875 16C30.7875 7.84375 24.15 1.2125 16 1.2125C7.84375 1.2125 1.2125 7.84375 1.2125 16C1.2125 24.1562 7.85 30.7875 16 30.7875C24.1562 30.7875 30.7875 24.1562 30.7875 16Z" fill="#09179D"/>
</g>
<defs>
<clipPath id="clip0_83_94">
<rect width="32" height="32" fill="white"/>
</clipPath>
</defs>
</svg>
