<svg width="722" height="80" viewBox="0 0 722 80" fill="none" xmlns="http://www.w3.org/2000/svg">
<g clip-path="url(#clip0_334_93)">
<rect y="40" width="722" height="40" fill="#F7F7F7"/>
<rect width="722" height="40" fill="#128C7E"/>
<path d="M256.247 43.573C255.799 43.3495 253.598 42.2725 253.188 42.1225C252.776 41.974 252.478 41.9005 252.178 42.3475C251.881 42.793 251.022 43.7965 250.761 44.0935C250.5 44.392 250.238 44.428 249.79 44.206C249.343 43.981 247.899 43.5115 246.188 41.9935C244.858 40.8115 243.958 39.352 243.697 38.905C243.436 38.4595 243.67 38.218 243.893 37.996C244.095 37.7965 244.342 37.4755 244.565 37.216C244.79 36.955 244.864 36.769 245.014 36.4705C245.163 36.1735 245.09 35.914 244.977 35.6905C244.864 35.467 243.968 33.2725 243.596 32.38C243.231 31.5115 242.862 31.63 242.588 31.615C242.302 31.6037 242.015 31.5987 241.729 31.6C241.43 31.6 240.945 31.711 240.535 32.158C240.125 32.6035 238.968 33.682 238.968 35.8765C238.968 38.0695 240.573 40.189 240.796 40.4875C241.02 40.7845 243.955 45.2875 248.448 47.218C249.516 47.677 250.35 47.9515 251.001 48.1555C252.074 48.496 253.05 48.448 253.821 48.3325C254.681 48.205 256.47 47.254 256.844 46.213C257.218 45.172 257.218 44.2795 257.105 44.0935C256.993 43.9075 256.695 43.7965 256.246 43.573M248.075 54.6775H248.069C245.401 54.6777 242.782 53.9638 240.487 52.6105L239.943 52.2895L234.304 53.7625L235.809 48.2905L235.454 47.7295C233.963 45.3659 233.174 42.6306 233.179 39.8395C233.18 31.6645 239.864 25.0136 248.081 25.0136C252.06 25.0136 255.801 26.5586 258.613 29.3605C260.001 30.7355 261.101 32.3706 261.849 34.1714C262.598 35.9722 262.98 37.9028 262.974 39.8515C262.969 48.0265 256.286 54.6775 248.075 54.6775ZM260.755 27.2321C259.094 25.5684 257.119 24.2494 254.942 23.3513C252.765 22.4532 250.432 21.9939 248.075 22.0001C238.196 22.0001 230.155 30.0025 230.151 39.838C230.151 42.982 230.975 46.051 232.544 48.7555L230 58L239.503 55.519C242.13 56.9439 245.075 57.6906 248.068 57.691H248.075C257.953 57.691 265.995 49.6885 266 39.8515C266.007 37.5074 265.547 35.1852 264.647 33.0191C263.747 30.853 262.424 28.8861 260.755 27.2321Z" fill="url(#paint0_linear_334_93)"/>
<path d="M285.261 51L278.602 27.7273H283.977L287.83 43.8977H288.023L292.273 27.7273H296.875L301.114 43.9318H301.318L305.17 27.7273H310.545L303.886 51H299.091L294.659 35.7841H294.477L290.057 51H285.261ZM317.929 40.9091V51H313.088V27.7273H317.793V36.625H317.997C318.391 35.5947 319.027 34.7879 319.906 34.2045C320.785 33.6136 321.887 33.3182 323.213 33.3182C324.425 33.3182 325.482 33.5833 326.384 34.1136C327.293 34.6364 327.997 35.3902 328.497 36.375C329.005 37.3523 329.255 38.5227 329.247 39.8864V51H324.406V40.75C324.414 39.6742 324.141 38.8371 323.588 38.2386C323.043 37.6402 322.277 37.3409 321.293 37.3409C320.634 37.3409 320.05 37.4811 319.543 37.7614C319.043 38.0417 318.649 38.4508 318.361 38.9886C318.08 39.5189 317.937 40.1591 317.929 40.9091ZM338.034 51.3295C336.92 51.3295 335.928 51.1364 335.057 50.75C334.186 50.3561 333.496 49.7765 332.989 49.0114C332.489 48.2386 332.239 47.2765 332.239 46.125C332.239 45.1553 332.417 44.3409 332.773 43.6818C333.129 43.0227 333.614 42.4924 334.227 42.0909C334.841 41.6894 335.538 41.3864 336.318 41.1818C337.106 40.9773 337.932 40.8333 338.795 40.75C339.811 40.6439 340.629 40.5455 341.25 40.4545C341.871 40.3561 342.322 40.2121 342.602 40.0227C342.883 39.8333 343.023 39.553 343.023 39.1818V39.1136C343.023 38.3939 342.795 37.8371 342.341 37.4432C341.894 37.0492 341.258 36.8523 340.432 36.8523C339.561 36.8523 338.867 37.0455 338.352 37.4318C337.837 37.8106 337.496 38.2879 337.33 38.8636L332.852 38.5C333.08 37.4394 333.527 36.5227 334.193 35.75C334.86 34.9697 335.72 34.3712 336.773 33.9545C337.833 33.5303 339.061 33.3182 340.455 33.3182C341.424 33.3182 342.352 33.4318 343.239 33.6591C344.133 33.8864 344.924 34.2386 345.614 34.7159C346.311 35.1932 346.86 35.8068 347.261 36.5568C347.663 37.2992 347.864 38.1894 347.864 39.2273V51H343.273V48.5795H343.136C342.856 49.125 342.481 49.6061 342.011 50.0227C341.542 50.4318 340.977 50.7538 340.318 50.9886C339.659 51.2159 338.898 51.3295 338.034 51.3295ZM339.42 47.9886C340.133 47.9886 340.761 47.8485 341.307 47.5682C341.852 47.2803 342.28 46.8939 342.591 46.4091C342.902 45.9242 343.057 45.375 343.057 44.7614V42.9091C342.905 43.0076 342.697 43.0985 342.432 43.1818C342.174 43.2576 341.883 43.3295 341.557 43.3977C341.231 43.4583 340.905 43.5152 340.58 43.5682C340.254 43.6136 339.958 43.6553 339.693 43.6932C339.125 43.7765 338.629 43.9091 338.205 44.0909C337.78 44.2727 337.451 44.5189 337.216 44.8295C336.981 45.1326 336.864 45.5114 336.864 45.9659C336.864 46.625 337.102 47.1288 337.58 47.4773C338.064 47.8182 338.678 47.9886 339.42 47.9886ZM360.903 33.5455V37.1818H350.392V33.5455H360.903ZM352.778 29.3636H357.619V45.6364C357.619 46.0833 357.688 46.4318 357.824 46.6818C357.96 46.9242 358.15 47.0947 358.392 47.1932C358.642 47.2917 358.93 47.3409 359.256 47.3409C359.483 47.3409 359.71 47.322 359.938 47.2841C360.165 47.2386 360.339 47.2045 360.46 47.1818L361.222 50.7841C360.979 50.8598 360.638 50.947 360.199 51.0455C359.759 51.1515 359.225 51.2159 358.597 51.2386C357.43 51.2841 356.407 51.1288 355.528 50.7727C354.657 50.4167 353.979 49.8636 353.494 49.1136C353.009 48.3636 352.771 47.4167 352.778 46.2727V29.3636ZM378.361 38.5227L373.929 38.7955C373.853 38.4167 373.69 38.0758 373.44 37.7727C373.19 37.4621 372.861 37.2159 372.452 37.0341C372.05 36.8447 371.569 36.75 371.009 36.75C370.259 36.75 369.626 36.9091 369.111 37.2273C368.596 37.5379 368.338 37.9545 368.338 38.4773C368.338 38.8939 368.505 39.2462 368.838 39.5341C369.171 39.822 369.743 40.053 370.554 40.2273L373.713 40.8636C375.41 41.2121 376.675 41.7727 377.509 42.5455C378.342 43.3182 378.759 44.3333 378.759 45.5909C378.759 46.7348 378.421 47.7386 377.747 48.6023C377.08 49.4659 376.164 50.1402 374.997 50.625C373.838 51.1023 372.501 51.3409 370.986 51.3409C368.675 51.3409 366.834 50.8598 365.463 49.8977C364.099 48.928 363.3 47.6098 363.065 45.9432L367.827 45.6932C367.971 46.3977 368.319 46.9356 368.872 47.3068C369.425 47.6705 370.134 47.8523 370.997 47.8523C371.846 47.8523 372.527 47.6894 373.043 47.3636C373.565 47.0303 373.83 46.6023 373.838 46.0795C373.83 45.6402 373.645 45.2803 373.281 45C372.918 44.7121 372.357 44.4924 371.599 44.3409L368.577 43.7386C366.872 43.3977 365.603 42.8068 364.77 41.9659C363.944 41.125 363.531 40.053 363.531 38.75C363.531 37.6288 363.834 36.6629 364.44 35.8523C365.054 35.0417 365.914 34.4167 367.02 33.9773C368.134 33.5379 369.437 33.3182 370.929 33.3182C373.134 33.3182 374.868 33.7841 376.134 34.7159C377.406 35.6477 378.149 36.9167 378.361 38.5227ZM385.909 51H380.636L388.67 27.7273H395.011L403.034 51H397.761L391.932 33.0455H391.75L385.909 51ZM385.58 41.8523H398.034V45.6932H385.58V41.8523ZM405.744 57.5455V33.5455H410.517V36.4773H410.733C410.945 36.0076 411.252 35.5303 411.653 35.0455C412.063 34.553 412.593 34.1439 413.244 33.8182C413.903 33.4848 414.722 33.3182 415.699 33.3182C416.972 33.3182 418.146 33.6515 419.222 34.3182C420.297 34.9773 421.157 35.9735 421.801 37.3068C422.445 38.6326 422.767 40.2955 422.767 42.2955C422.767 44.2424 422.453 45.8864 421.824 47.2273C421.203 48.5606 420.354 49.572 419.278 50.2614C418.21 50.9432 417.013 51.2841 415.688 51.2841C414.748 51.2841 413.949 51.1288 413.29 50.8182C412.638 50.5076 412.104 50.1174 411.688 49.6477C411.271 49.1705 410.953 48.6894 410.733 48.2045H410.585V57.5455H405.744ZM410.483 42.2727C410.483 43.3106 410.627 44.2159 410.915 44.9886C411.203 45.7614 411.619 46.3636 412.165 46.7955C412.71 47.2197 413.373 47.4318 414.153 47.4318C414.941 47.4318 415.608 47.2159 416.153 46.7841C416.699 46.3447 417.112 45.7386 417.392 44.9659C417.68 44.1856 417.824 43.2879 417.824 42.2727C417.824 41.2652 417.684 40.3788 417.403 39.6136C417.123 38.8485 416.71 38.25 416.165 37.8182C415.619 37.3864 414.949 37.1705 414.153 37.1705C413.366 37.1705 412.699 37.3788 412.153 37.7955C411.616 38.2121 411.203 38.803 410.915 39.5682C410.627 40.3333 410.483 41.2348 410.483 42.2727ZM425.994 57.5455V33.5455H430.767V36.4773H430.983C431.195 36.0076 431.502 35.5303 431.903 35.0455C432.313 34.553 432.843 34.1439 433.494 33.8182C434.153 33.4848 434.972 33.3182 435.949 33.3182C437.222 33.3182 438.396 33.6515 439.472 34.3182C440.547 34.9773 441.407 35.9735 442.051 37.3068C442.695 38.6326 443.017 40.2955 443.017 42.2955C443.017 44.2424 442.703 45.8864 442.074 47.2273C441.453 48.5606 440.604 49.572 439.528 50.2614C438.46 50.9432 437.263 51.2841 435.938 51.2841C434.998 51.2841 434.199 51.1288 433.54 50.8182C432.888 50.5076 432.354 50.1174 431.938 49.6477C431.521 49.1705 431.203 48.6894 430.983 48.2045H430.835V57.5455H425.994ZM430.733 42.2727C430.733 43.3106 430.877 44.2159 431.165 44.9886C431.453 45.7614 431.869 46.3636 432.415 46.7955C432.96 47.2197 433.623 47.4318 434.403 47.4318C435.191 47.4318 435.858 47.2159 436.403 46.7841C436.949 46.3447 437.362 45.7386 437.642 44.9659C437.93 44.1856 438.074 43.2879 438.074 42.2727C438.074 41.2652 437.934 40.3788 437.653 39.6136C437.373 38.8485 436.96 38.25 436.415 37.8182C435.869 37.3864 435.199 37.1705 434.403 37.1705C433.616 37.1705 432.949 37.3788 432.403 37.7955C431.866 38.2121 431.453 38.803 431.165 39.5682C430.877 40.3333 430.733 41.2348 430.733 42.2727Z" fill="url(#paint1_linear_334_93)"/>
</g>
<defs>
<linearGradient id="paint0_linear_334_93" x1="248" y1="29.5484" x2="248" y2="58" gradientUnits="userSpaceOnUse">
<stop stop-color="white"/>
<stop offset="0.385317" stop-color="white" stop-opacity="0.89"/>
<stop offset="0.385417" stop-color="white"/>
<stop offset="0.385517" stop-color="#128C7E" stop-opacity="0.47"/>
<stop offset="0.583333" stop-color="#128C7E" stop-opacity="0.76"/>
<stop offset="0.807292" stop-color="#128C7E" stop-opacity="0.96"/>
</linearGradient>
<linearGradient id="paint1_linear_334_93" x1="361.5" y1="28.1774" x2="361.5" y2="59" gradientUnits="userSpaceOnUse">
<stop stop-color="white"/>
<stop offset="0.385317" stop-color="white" stop-opacity="0.89"/>
<stop offset="0.385417" stop-color="white"/>
<stop offset="0.385517" stop-color="#128C7E" stop-opacity="0.47"/>
<stop offset="0.583333" stop-color="#128C7E" stop-opacity="0.76"/>
<stop offset="0.807292" stop-color="#128C7E" stop-opacity="0.96"/>
</linearGradient>
<clipPath id="clip0_334_93">
<rect width="722" height="80" fill="white"/>
</clipPath>
</defs>
</svg>
