<svg width="722" height="60" viewBox="0 0 722 60" fill="none" xmlns="http://www.w3.org/2000/svg">
<rect x="2.5" y="2.5" width="717" height="55" fill="white"/>
<g filter="url(#filter0_d_334_119)">
<path d="M298.517 39V21.5455H305.403C306.727 21.5455 307.855 21.7983 308.787 22.304C309.719 22.804 310.429 23.5 310.918 24.392C311.412 25.2784 311.659 26.3011 311.659 27.4602C311.659 28.6193 311.409 29.642 310.909 30.5284C310.409 31.4148 309.685 32.1051 308.736 32.5994C307.793 33.0937 306.651 33.3409 305.31 33.3409H300.92V30.3835H304.713C305.423 30.3835 306.009 30.2614 306.469 30.017C306.935 29.767 307.281 29.4233 307.509 28.9858C307.741 28.5426 307.858 28.0341 307.858 27.4602C307.858 26.8807 307.741 26.375 307.509 25.9432C307.281 25.5057 306.935 25.1676 306.469 24.929C306.003 24.6847 305.412 24.5625 304.696 24.5625H302.207V39H298.517ZM317.619 31.4318V39H313.988V21.5455H317.516V28.2188H317.67C317.965 27.446 318.442 26.8409 319.102 26.4034C319.761 25.9602 320.587 25.7386 321.582 25.7386C322.491 25.7386 323.283 25.9375 323.96 26.3352C324.641 26.7273 325.17 27.2926 325.545 28.0312C325.925 28.7642 326.113 29.642 326.107 30.6648V39H322.477V31.3125C322.482 30.5057 322.278 29.8778 321.863 29.429C321.454 28.9801 320.88 28.7557 320.141 28.7557C319.647 28.7557 319.21 28.8608 318.829 29.071C318.454 29.2812 318.158 29.5881 317.942 29.9915C317.732 30.3892 317.624 30.8693 317.619 31.4318ZM334.879 39.2557C333.555 39.2557 332.411 38.9744 331.445 38.4119C330.484 37.8437 329.743 37.054 329.22 36.0426C328.697 35.0256 328.436 33.8466 328.436 32.5057C328.436 31.1534 328.697 29.9716 329.22 28.9602C329.743 27.9432 330.484 27.1534 331.445 26.5909C332.411 26.0227 333.555 25.7386 334.879 25.7386C336.203 25.7386 337.345 26.0227 338.305 26.5909C339.271 27.1534 340.016 27.9432 340.538 28.9602C341.061 29.9716 341.322 31.1534 341.322 32.5057C341.322 33.8466 341.061 35.0256 340.538 36.0426C340.016 37.054 339.271 37.8437 338.305 38.4119C337.345 38.9744 336.203 39.2557 334.879 39.2557ZM334.896 36.4432C335.499 36.4432 336.001 36.2727 336.405 35.9318C336.808 35.5852 337.112 35.1136 337.317 34.517C337.527 33.9205 337.632 33.2415 337.632 32.4801C337.632 31.7188 337.527 31.0398 337.317 30.4432C337.112 29.8466 336.808 29.375 336.405 29.0284C336.001 28.6818 335.499 28.5085 334.896 28.5085C334.288 28.5085 333.777 28.6818 333.362 29.0284C332.953 29.375 332.643 29.8466 332.433 30.4432C332.229 31.0398 332.126 31.7188 332.126 32.4801C332.126 33.2415 332.229 33.9205 332.433 34.517C332.643 35.1136 332.953 35.5852 333.362 35.9318C333.777 36.2727 334.288 36.4432 334.896 36.4432ZM350.646 25.9091V28.6364H342.763V25.9091H350.646ZM344.553 22.7727H348.183V34.9773C348.183 35.3125 348.234 35.5739 348.337 35.7614C348.439 35.9432 348.581 36.071 348.763 36.1449C348.95 36.2187 349.166 36.2557 349.411 36.2557C349.581 36.2557 349.751 36.2415 349.922 36.2131C350.092 36.179 350.223 36.1534 350.314 36.1364L350.885 38.8381C350.703 38.8949 350.447 38.9602 350.118 39.0341C349.788 39.1136 349.388 39.1619 348.916 39.179C348.041 39.2131 347.274 39.0966 346.615 38.8295C345.962 38.5625 345.453 38.1477 345.089 37.5852C344.726 37.0227 344.547 36.3125 344.553 35.4545V22.7727ZM358.786 39.2557C357.462 39.2557 356.317 38.9744 355.351 38.4119C354.391 37.8437 353.649 37.054 353.126 36.0426C352.604 35.0256 352.342 33.8466 352.342 32.5057C352.342 31.1534 352.604 29.9716 353.126 28.9602C353.649 27.9432 354.391 27.1534 355.351 26.5909C356.317 26.0227 357.462 25.7386 358.786 25.7386C360.109 25.7386 361.251 26.0227 362.212 26.5909C363.178 27.1534 363.922 27.9432 364.445 28.9602C364.967 29.9716 365.229 31.1534 365.229 32.5057C365.229 33.8466 364.967 35.0256 364.445 36.0426C363.922 37.054 363.178 37.8437 362.212 38.4119C361.251 38.9744 360.109 39.2557 358.786 39.2557ZM358.803 36.4432C359.405 36.4432 359.908 36.2727 360.311 35.9318C360.714 35.5852 361.018 35.1136 361.223 34.517C361.433 33.9205 361.538 33.2415 361.538 32.4801C361.538 31.7188 361.433 31.0398 361.223 30.4432C361.018 29.8466 360.714 29.375 360.311 29.0284C359.908 28.6818 359.405 28.5085 358.803 28.5085C358.195 28.5085 357.683 28.6818 357.268 29.0284C356.859 29.375 356.55 29.8466 356.339 30.4432C356.135 31.0398 356.033 31.7188 356.033 32.4801C356.033 33.2415 356.135 33.9205 356.339 34.517C356.55 35.1136 356.859 35.5852 357.268 35.9318C357.683 36.2727 358.195 36.4432 358.803 36.4432ZM378.482 29.642L375.158 29.8466C375.101 29.5625 374.979 29.3068 374.791 29.0795C374.604 28.8466 374.357 28.6619 374.05 28.5256C373.749 28.3835 373.388 28.3125 372.967 28.3125C372.405 28.3125 371.93 28.4318 371.544 28.6705C371.158 28.9034 370.964 29.2159 370.964 29.608C370.964 29.9205 371.089 30.1847 371.339 30.4006C371.589 30.6165 372.018 30.7898 372.626 30.9205L374.996 31.3977C376.268 31.6591 377.217 32.0795 377.842 32.6591C378.467 33.2386 378.78 34 378.78 34.9432C378.78 35.8011 378.527 36.554 378.021 37.2017C377.521 37.8494 376.834 38.3551 375.959 38.7188C375.089 39.0767 374.087 39.2557 372.95 39.2557C371.217 39.2557 369.837 38.8949 368.808 38.1733C367.786 37.446 367.186 36.4574 367.01 35.2074L370.581 35.0199C370.689 35.5483 370.95 35.9517 371.365 36.2301C371.78 36.5028 372.311 36.6392 372.959 36.6392C373.595 36.6392 374.107 36.517 374.493 36.2727C374.885 36.0227 375.084 35.7017 375.089 35.3097C375.084 34.9801 374.945 34.7102 374.672 34.5C374.399 34.2841 373.979 34.1193 373.411 34.0057L371.143 33.554C369.865 33.2983 368.913 32.8551 368.288 32.2244C367.669 31.5937 367.359 30.7898 367.359 29.8125C367.359 28.9716 367.587 28.2472 368.041 27.6392C368.501 27.0312 369.146 26.5625 369.976 26.233C370.811 25.9034 371.788 25.7386 372.908 25.7386C374.561 25.7386 375.862 26.0881 376.811 26.7869C377.766 27.4858 378.322 28.4375 378.482 29.642ZM384.697 31.4318V39H381.066V21.5455H384.594V28.2188H384.748C385.043 27.446 385.521 26.8409 386.18 26.4034C386.839 25.9602 387.665 25.7386 388.66 25.7386C389.569 25.7386 390.362 25.9375 391.038 26.3352C391.719 26.7273 392.248 27.2926 392.623 28.0312C393.004 28.7642 393.191 29.642 393.185 30.6648V39H389.555V31.3125C389.56 30.5057 389.356 29.8778 388.941 29.429C388.532 28.9801 387.958 28.7557 387.219 28.7557C386.725 28.7557 386.288 28.8608 385.907 29.071C385.532 29.2812 385.237 29.5881 385.021 29.9915C384.81 30.3892 384.702 30.8693 384.697 31.4318ZM401.957 39.2557C400.634 39.2557 399.489 38.9744 398.523 38.4119C397.563 37.8437 396.821 37.054 396.298 36.0426C395.776 35.0256 395.514 33.8466 395.514 32.5057C395.514 31.1534 395.776 29.9716 396.298 28.9602C396.821 27.9432 397.563 27.1534 398.523 26.5909C399.489 26.0227 400.634 25.7386 401.957 25.7386C403.281 25.7386 404.423 26.0227 405.384 26.5909C406.349 27.1534 407.094 27.9432 407.616 28.9602C408.139 29.9716 408.401 31.1534 408.401 32.5057C408.401 33.8466 408.139 35.0256 407.616 36.0426C407.094 37.054 406.349 37.8437 405.384 38.4119C404.423 38.9744 403.281 39.2557 401.957 39.2557ZM401.974 36.4432C402.577 36.4432 403.08 36.2727 403.483 35.9318C403.886 35.5852 404.19 35.1136 404.395 34.517C404.605 33.9205 404.71 33.2415 404.71 32.4801C404.71 31.7188 404.605 31.0398 404.395 30.4432C404.19 29.8466 403.886 29.375 403.483 29.0284C403.08 28.6818 402.577 28.5085 401.974 28.5085C401.366 28.5085 400.855 28.6818 400.44 29.0284C400.031 29.375 399.722 29.8466 399.511 30.4432C399.307 31.0398 399.205 31.7188 399.205 32.4801C399.205 33.2415 399.307 33.9205 399.511 34.517C399.722 35.1136 400.031 35.5852 400.44 35.9318C400.855 36.2727 401.366 36.4432 401.974 36.4432ZM410.761 43.9091V25.9091H414.341V28.108H414.503C414.662 27.7557 414.892 27.3977 415.193 27.0341C415.5 26.6648 415.898 26.358 416.386 26.1136C416.881 25.8636 417.494 25.7386 418.227 25.7386C419.182 25.7386 420.063 25.9886 420.869 26.4886C421.676 26.983 422.321 27.7301 422.804 28.7301C423.287 29.7244 423.528 30.9716 423.528 32.4716C423.528 33.9318 423.293 35.1648 422.821 36.1705C422.355 37.1705 421.719 37.929 420.912 38.446C420.111 38.9574 419.213 39.2131 418.219 39.2131C417.514 39.2131 416.915 39.0966 416.42 38.8636C415.932 38.6307 415.531 38.3381 415.219 37.9858C414.906 37.6278 414.668 37.267 414.503 36.9034H414.392V43.9091H410.761ZM414.315 32.4545C414.315 33.233 414.423 33.9119 414.639 34.4915C414.855 35.071 415.168 35.5227 415.577 35.8466C415.986 36.1648 416.483 36.3239 417.068 36.3239C417.659 36.3239 418.159 36.1619 418.568 35.8381C418.977 35.5085 419.287 35.054 419.497 34.4744C419.713 33.8892 419.821 33.2159 419.821 32.4545C419.821 31.6989 419.716 31.0341 419.506 30.4602C419.295 29.8864 418.986 29.4375 418.577 29.1136C418.168 28.7898 417.665 28.6278 417.068 28.6278C416.477 28.6278 415.977 28.7841 415.568 29.0966C415.165 29.4091 414.855 29.8523 414.639 30.4261C414.423 31 414.315 31.6761 414.315 32.4545Z" fill="#171717"/>
</g>
<g clip-path="url(#clip0_334_119)">
<path d="M282.186 16H262.814C260.156 16 258 18.2072 258 20.93V40.0236C258 42.7464 260.156 44.9536 262.814 44.9536H282.186C284.844 44.9536 287 42.7464 287 40.0236V20.93C287 18.2072 284.844 16 282.186 16Z" fill="#001E36"/>
<path d="M264.53 36.3043V23.5747C264.53 23.4819 264.569 23.4352 264.647 23.4352L264.77 23.4349L264.98 23.4326L265.273 23.4266L266.253 23.4054L267.303 23.3855C267.673 23.379 268.039 23.3755 268.402 23.3755C269.388 23.3755 270.218 23.5017 270.893 23.754C271.501 23.9648 272.056 24.3118 272.517 24.7699C272.908 25.167 273.21 25.6462 273.402 26.1745C273.584 26.6885 273.676 27.2313 273.675 27.778C273.675 28.8407 273.435 29.7172 272.955 30.4076C272.485 31.0812 271.831 31.5964 271.074 31.8873L271.009 31.9117C270.219 32.2134 269.345 32.3225 268.385 32.3293L268.236 32.3298L268.015 32.3286L267.903 32.327L267.779 32.324L267.704 32.3209L267.659 32.3185L267.546 32.3143L267.41 32.3114L267.203 32.3099L267.157 32.3098V36.2843C267.161 36.3087 267.159 36.3335 267.151 36.3569C267.144 36.3802 267.131 36.4014 267.114 36.4188C267.097 36.4362 267.076 36.4494 267.053 36.4571C267.03 36.4649 267.006 36.4671 266.982 36.4636H264.666C264.575 36.4636 264.53 36.4108 264.53 36.3043V36.3043ZM267.158 25.8258V29.9776C267.313 29.9905 267.469 29.9971 267.624 29.9976H268.266C268.709 29.9961 269.149 29.9286 269.573 29.7972L269.657 29.7702C270.043 29.653 270.387 29.4248 270.65 29.1127C270.893 28.8183 271.02 28.4127 271.028 27.8957L271.029 27.8378C271.039 27.4524 270.941 27.0722 270.747 26.7422C270.542 26.423 270.247 26.176 269.901 26.0349C269.448 25.8549 268.965 25.7703 268.48 25.786L268.234 25.7867L268.078 25.7881L267.929 25.79L267.72 25.7942L267.567 25.7986L267.488 25.8016L267.381 25.8067L267.291 25.8124L267.239 25.8166L267.195 25.821L267.175 25.8233L267.158 25.8258V25.8258ZM281.197 29.2227C280.857 29.0441 280.497 28.91 280.125 28.8234L280.039 28.8044C279.63 28.7082 279.212 28.6552 278.792 28.6463L278.687 28.645C278.441 28.6382 278.195 28.6684 277.957 28.7347C277.806 28.7691 277.672 28.8573 277.578 28.9836C277.515 29.0847 277.481 29.2022 277.481 29.3223C277.484 29.4388 277.525 29.5508 277.597 29.641C277.701 29.7646 277.825 29.8683 277.964 29.9469L278.006 29.9697C278.283 30.1227 278.569 30.259 278.862 30.3781C279.515 30.6019 280.139 30.9063 280.72 31.2845C281.116 31.5403 281.443 31.8929 281.673 32.3105C281.866 32.7059 281.963 33.1433 281.955 33.5853C281.967 34.1691 281.804 34.7426 281.488 35.2289C281.15 35.7225 280.681 36.1062 280.136 36.3344C279.566 36.5912 278.865 36.7238 278.034 36.7325L277.948 36.733C277.433 36.7383 276.918 36.6922 276.412 36.5952L276.304 36.5736C275.878 36.4936 275.463 36.3597 275.068 36.1752C275.029 36.1542 274.995 36.1229 274.971 36.0844C274.948 36.0459 274.934 36.0015 274.932 35.9559V33.7846C274.93 33.7636 274.933 33.7422 274.942 33.7229C274.95 33.7036 274.964 33.6871 274.981 33.675C274.998 33.6653 275.017 33.6611 275.036 33.6629C275.055 33.6647 275.073 33.6724 275.088 33.685C275.553 33.966 276.059 34.171 276.586 34.2926C277.05 34.4119 277.527 34.4754 278.006 34.4819C278.46 34.4819 278.794 34.4221 279.008 34.3026C279.105 34.2573 279.186 34.1842 279.243 34.0923C279.3 34.0004 279.33 33.8935 279.329 33.7846C279.329 33.6123 279.232 33.4461 279.037 33.2866C278.956 33.2198 278.839 33.1471 278.686 33.0686L278.613 33.0319L278.536 32.9944L278.495 32.9754L278.41 32.9367C278.395 32.93 278.38 32.9235 278.365 32.917L278.272 32.877L278.224 32.8567L278.123 32.8156L278.071 32.7947L277.963 32.7521L277.85 32.7088C277.24 32.4911 276.66 32.1896 276.129 31.8124C275.748 31.5416 275.435 31.1834 275.214 30.7665C275.023 30.374 274.926 29.9402 274.932 29.5016C274.931 28.9745 275.073 28.4574 275.341 28.0075C275.647 27.5122 276.086 27.1178 276.605 26.8721C277.176 26.5801 277.889 26.4339 278.745 26.4337C279.247 26.4296 279.748 26.4662 280.243 26.5433C280.602 26.5899 280.953 26.6871 281.286 26.8322C281.34 26.8479 281.383 26.8884 281.403 26.9418C281.416 26.9904 281.423 27.0406 281.422 27.0912V29.1032C281.425 29.1508 281.403 29.1964 281.364 29.2227C281.338 29.2359 281.309 29.2428 281.28 29.2428C281.251 29.2428 281.223 29.2359 281.197 29.2227V29.2227Z" fill="#31A8FF"/>
</g>
<rect x="2.5" y="2.5" width="717" height="55" stroke="url(#paint0_linear_334_119)" stroke-width="5"/>
<defs>
<filter id="filter0_d_334_119" x="294.517" y="21.5454" width="133.011" height="30.3638" filterUnits="userSpaceOnUse" color-interpolation-filters="sRGB">
<feFlood flood-opacity="0" result="BackgroundImageFix"/>
<feColorMatrix in="SourceAlpha" type="matrix" values="0 0 0 0 0 0 0 0 0 0 0 0 0 0 0 0 0 0 127 0" result="hardAlpha"/>
<feOffset dy="4"/>
<feGaussianBlur stdDeviation="2"/>
<feComposite in2="hardAlpha" operator="out"/>
<feColorMatrix type="matrix" values="0 0 0 0 0 0 0 0 0 0 0 0 0 0 0 0 0 0 0.25 0"/>
<feBlend mode="normal" in2="BackgroundImageFix" result="effect1_dropShadow_334_119"/>
<feBlend mode="normal" in="SourceGraphic" in2="effect1_dropShadow_334_119" result="shape"/>
</filter>
<linearGradient id="paint0_linear_334_119" x1="1.30981e-06" y1="9.2063" x2="722" y2="9.20627" gradientUnits="userSpaceOnUse">
<stop stop-color="#552C00"/>
<stop offset="0.0725735" stop-color="#FF6200"/>
<stop offset="0.15528" stop-color="#FF6200"/>
<stop offset="0.259956" stop-color="#EDD224"/>
<stop offset="0.334909" stop-color="#FFE2AD"/>
<stop offset="0.412447" stop-color="#EDD224"/>
<stop offset="0.493932" stop-color="#EDD224"/>
<stop offset="0.593368" stop-color="#48D761"/>
<stop offset="0.672198" stop-color="#48D761"/>
<stop offset="0.760074" stop-color="#4489FE"/>
<stop offset="0.899129" stop-color="#112F55"/>
<stop offset="1" stop-color="#47D367"/>
</linearGradient>
<clipPath id="clip0_334_119">
<rect width="29" height="29" fill="white" transform="translate(258 16)"/>
</clipPath>
</defs>
</svg>
