<svg width="722" height="60" viewBox="0 0 722 60" fill="none" xmlns="http://www.w3.org/2000/svg">
<rect width="722" height="60" fill="white"/>
<path d="M296.034 42H290.761L298.795 18.7273H305.136L313.159 42H307.886L302.057 24.0455H301.875L296.034 42ZM295.705 32.8523H308.159V36.6932H295.705V32.8523ZM320.71 31.9091V42H315.869V24.5455H320.483V27.625H320.688C321.074 26.6098 321.722 25.8068 322.631 25.2159C323.54 24.6174 324.642 24.3182 325.938 24.3182C327.15 24.3182 328.206 24.5833 329.108 25.1136C330.009 25.6439 330.71 26.4015 331.21 27.3864C331.71 28.3636 331.96 29.5303 331.96 30.8864V42H327.119V31.75C327.127 30.6818 326.854 29.8485 326.301 29.25C325.748 28.6439 324.987 28.3409 324.017 28.3409C323.366 28.3409 322.79 28.4811 322.29 28.7614C321.797 29.0417 321.411 29.4508 321.131 29.9886C320.858 30.5189 320.718 31.1591 320.71 31.9091ZM338.139 48.5455C337.526 48.5455 336.95 48.4962 336.412 48.3977C335.882 48.3068 335.442 48.1894 335.094 48.0455L336.185 44.4318C336.753 44.6061 337.264 44.7008 337.719 44.7159C338.181 44.7311 338.579 44.625 338.912 44.3977C339.253 44.1705 339.529 43.7841 339.741 43.2386L340.026 42.5L333.764 24.5455H338.855L342.469 37.3636H342.651L346.298 24.5455H351.423L344.639 43.8864C344.313 44.8258 343.87 45.6439 343.31 46.3409C342.757 47.0455 342.056 47.5871 341.207 47.9659C340.359 48.3523 339.336 48.5455 338.139 48.5455ZM362.241 42H353.991V18.7273H362.31C364.651 18.7273 366.666 19.1932 368.355 20.125C370.045 21.0492 371.344 22.3788 372.253 24.1136C373.17 25.8485 373.628 27.9242 373.628 30.3409C373.628 32.7652 373.17 34.8485 372.253 36.5909C371.344 38.3333 370.037 39.6705 368.332 40.6023C366.635 41.5341 364.605 42 362.241 42ZM358.912 37.7841H362.037C363.491 37.7841 364.715 37.5265 365.707 37.0114C366.707 36.4886 367.457 35.6818 367.957 34.5909C368.465 33.4924 368.719 32.0758 368.719 30.3409C368.719 28.6212 368.465 27.2159 367.957 26.125C367.457 25.0341 366.711 24.2311 365.719 23.7159C364.726 23.2008 363.503 22.9432 362.048 22.9432H358.912V37.7841ZM385.136 42.3409C383.341 42.3409 381.795 41.9773 380.5 41.25C379.212 40.5152 378.22 39.4773 377.523 38.1364C376.826 36.7879 376.477 35.1932 376.477 33.3523C376.477 31.5568 376.826 29.9811 377.523 28.625C378.22 27.2689 379.201 26.2121 380.466 25.4545C381.739 24.697 383.231 24.3182 384.943 24.3182C386.095 24.3182 387.167 24.5038 388.159 24.875C389.159 25.2386 390.03 25.7879 390.773 26.5227C391.523 27.2576 392.106 28.1818 392.523 29.2955C392.939 30.4015 393.148 31.697 393.148 33.1818V34.5114H378.409V31.5114H388.591C388.591 30.8144 388.439 30.197 388.136 29.6591C387.833 29.1212 387.413 28.7008 386.875 28.3977C386.345 28.0871 385.727 27.9318 385.023 27.9318C384.288 27.9318 383.636 28.1023 383.068 28.4432C382.508 28.7765 382.068 29.2273 381.75 29.7955C381.432 30.3561 381.269 30.9811 381.261 31.6705V34.5227C381.261 35.3864 381.42 36.1326 381.739 36.7614C382.064 37.3902 382.523 37.875 383.114 38.2159C383.705 38.5568 384.405 38.7273 385.216 38.7273C385.754 38.7273 386.246 38.6515 386.693 38.5C387.14 38.3485 387.523 38.1212 387.841 37.8182C388.159 37.5152 388.402 37.1439 388.568 36.7045L393.045 37C392.818 38.0758 392.352 39.0152 391.648 39.8182C390.951 40.6136 390.049 41.2348 388.943 41.6818C387.845 42.1212 386.576 42.3409 385.136 42.3409ZM410.83 29.5227L406.398 29.7955C406.322 29.4167 406.159 29.0758 405.909 28.7727C405.659 28.4621 405.33 28.2159 404.92 28.0341C404.519 27.8447 404.038 27.75 403.477 27.75C402.727 27.75 402.095 27.9091 401.58 28.2273C401.064 28.5379 400.807 28.9545 400.807 29.4773C400.807 29.8939 400.973 30.2462 401.307 30.5341C401.64 30.822 402.212 31.053 403.023 31.2273L406.182 31.8636C407.879 32.2121 409.144 32.7727 409.977 33.5455C410.811 34.3182 411.227 35.3333 411.227 36.5909C411.227 37.7348 410.89 38.7386 410.216 39.6023C409.549 40.4659 408.633 41.1402 407.466 41.625C406.307 42.1023 404.97 42.3409 403.455 42.3409C401.144 42.3409 399.303 41.8598 397.932 40.8977C396.568 39.928 395.769 38.6098 395.534 36.9432L400.295 36.6932C400.439 37.3977 400.788 37.9356 401.341 38.3068C401.894 38.6705 402.602 38.8523 403.466 38.8523C404.314 38.8523 404.996 38.6894 405.511 38.3636C406.034 38.0303 406.299 37.6023 406.307 37.0795C406.299 36.6402 406.114 36.2803 405.75 36C405.386 35.7121 404.826 35.4924 404.068 35.3409L401.045 34.7386C399.341 34.3977 398.072 33.8068 397.239 32.9659C396.413 32.125 396 31.053 396 29.75C396 28.6288 396.303 27.6629 396.909 26.8523C397.523 26.0417 398.383 25.4167 399.489 24.9773C400.602 24.5379 401.905 24.3182 403.398 24.3182C405.602 24.3182 407.337 24.7841 408.602 25.7159C409.875 26.6477 410.617 27.9167 410.83 29.5227ZM418.662 36.9773L418.673 31.1705H419.378L424.969 24.5455H430.526L423.014 33.3182H421.866L418.662 36.9773ZM414.276 42V18.7273H419.116V42H414.276ZM425.185 42L420.048 34.3977L423.276 30.9773L430.855 42H425.185Z" fill="black"/>
<path d="M249.563 16L235 30.5L249.563 45L264.129 30.5L249.563 16ZM262.463 16.0174L259.227 19.2404L270.584 30.4878L259.227 41.7944L262.465 44.9599L277 30.4878L262.463 16.0174Z" fill="#EF443B"/>
</svg>
