<svg width="740" height="81" viewBox="0 0 740 81" fill="none" xmlns="http://www.w3.org/2000/svg">
<rect y="0.333496" width="740" height="80" fill="#FF2233"/>
<path d="M252.296 45.88L252.008 39.896L262.728 28.6H268.488L258.824 39L255.944 42.072L252.296 45.88ZM247.656 51V28.6H252.808V51H247.656ZM262.984 51L255.016 41.24L258.408 37.56L269.032 51H262.984Z" fill="white"/>
<path d="M271.344 51V28.6H276.528V46.776H287.76V51H271.344ZM292.817 39.768C291.964 39.768 291.228 39.48 290.609 38.904C290.012 38.3067 289.713 37.5493 289.713 36.632C289.713 35.7147 290.012 34.9787 290.609 34.424C291.228 33.848 291.964 33.56 292.817 33.56C293.692 33.56 294.428 33.848 295.025 34.424C295.622 34.9787 295.921 35.7147 295.921 36.632C295.921 37.5493 295.622 38.3067 295.025 38.904C294.428 39.48 293.692 39.768 292.817 39.768ZM292.817 51.256C291.964 51.256 291.228 50.968 290.609 50.392C290.012 49.7947 289.713 49.0373 289.713 48.12C289.713 47.2027 290.012 46.4667 290.609 45.912C291.228 45.336 291.964 45.048 292.817 45.048C293.692 45.048 294.428 45.336 295.025 45.912C295.622 46.4667 295.921 47.2027 295.921 48.12C295.921 49.0373 295.622 49.7947 295.025 50.392C294.428 50.968 293.692 51.256 292.817 51.256Z" fill="#252525"/>
<path d="M301.712 51L311.696 28.6H316.816L326.832 51H321.392L313.2 31.224H315.248L307.024 51H301.712ZM306.704 46.2L308.08 42.264H319.6L321.008 46.2H306.704ZM338.639 51.384C335.461 51.384 332.975 50.4987 331.183 48.728C329.391 46.9573 328.495 44.4293 328.495 41.144V28.6H333.679V40.952C333.679 43.0853 334.117 44.6213 334.991 45.56C335.866 46.4987 337.093 46.968 338.671 46.968C340.25 46.968 341.477 46.4987 342.351 45.56C343.226 44.6213 343.663 43.0853 343.663 40.952V28.6H348.783V41.144C348.783 44.4293 347.887 46.9573 346.095 48.728C344.303 50.4987 341.818 51.384 338.639 51.384ZM353.906 51V28.6H358.194L371.41 44.728H369.33V28.6H374.45V51H370.194L356.946 34.872H359.026V51H353.906ZM390.47 51.384C388.742 51.384 387.131 51.1067 385.638 50.552C384.166 49.976 382.886 49.1653 381.798 48.12C380.71 47.0747 379.856 45.848 379.238 44.44C378.64 43.032 378.342 41.4853 378.342 39.8C378.342 38.1147 378.64 36.568 379.238 35.16C379.856 33.752 380.71 32.5253 381.798 31.48C382.907 30.4347 384.198 29.6347 385.67 29.08C387.142 28.504 388.752 28.216 390.502 28.216C392.443 28.216 394.192 28.5573 395.75 29.24C397.328 29.9013 398.651 30.8827 399.718 32.184L396.39 35.256C395.622 34.3813 394.768 33.7307 393.83 33.304C392.891 32.856 391.867 32.632 390.758 32.632C389.712 32.632 388.752 32.8027 387.878 33.144C387.003 33.4853 386.246 33.976 385.606 34.616C384.966 35.256 384.464 36.0133 384.102 36.888C383.76 37.7627 383.59 38.7333 383.59 39.8C383.59 40.8667 383.76 41.8373 384.102 42.712C384.464 43.5867 384.966 44.344 385.606 44.984C386.246 45.624 387.003 46.1147 387.878 46.456C388.752 46.7973 389.712 46.968 390.758 46.968C391.867 46.968 392.891 46.7547 393.83 46.328C394.768 45.88 395.622 45.208 396.39 44.312L399.718 47.384C398.651 48.6853 397.328 49.6773 395.75 50.36C394.192 51.0427 392.432 51.384 390.47 51.384ZM418.579 28.6H423.763V51H418.579V28.6ZM408.403 51H403.219V28.6H408.403V51ZM418.963 41.816H408.019V37.432H418.963V41.816ZM433.83 37.624H444.614V41.656H433.83V37.624ZM434.214 46.84H446.406V51H429.062V28.6H445.99V32.76H434.214V46.84ZM450.531 51V28.6H460.227C462.232 28.6 463.96 28.9307 465.411 29.592C466.862 30.232 467.982 31.16 468.771 32.376C469.56 33.592 469.955 35.0427 469.955 36.728C469.955 38.392 469.56 39.832 468.771 41.048C467.982 42.2427 466.862 43.16 465.411 43.8C463.96 44.44 462.232 44.76 460.227 44.76H453.411L455.715 42.488V51H450.531ZM464.771 51L459.171 42.872H464.707L470.371 51H464.771ZM455.715 43.064L453.411 40.632H459.939C461.539 40.632 462.734 40.2907 463.523 39.608C464.312 38.904 464.707 37.944 464.707 36.728C464.707 35.4907 464.312 34.5307 463.523 33.848C462.734 33.1653 461.539 32.824 459.939 32.824H453.411L455.715 30.36V43.064Z" fill="white"/>
</svg>
