<svg width="722" height="80" viewBox="0 0 722 80" fill="none" xmlns="http://www.w3.org/2000/svg">
<rect width="722" height="80" fill="#171A21"/>
<path d="M323.125 40C323.125 51.0484 314.381 60 303.594 60C294.646 60 287.113 53.8468 284.801 45.4516L292.287 48.621C292.79 51.2097 295.031 53.1694 297.704 53.1694C300.786 53.1694 303.358 50.5564 303.224 47.2419L309.868 42.3871C313.965 42.4919 317.401 39.0887 317.401 34.8468C317.401 30.6855 314.098 27.3065 310.033 27.3065C305.968 27.3065 302.666 30.6935 302.666 34.8468V34.9435L298.011 41.8548C296.792 41.7823 295.597 42.129 294.591 42.8306L284.125 38.3952C284.927 28.0968 293.332 20 303.594 20C314.381 20 323.125 28.9516 323.125 40ZM296.368 50.3468L293.969 49.3306C294.41 50.2692 295.171 51.0095 296.108 51.4113C298.223 52.3145 300.653 51.2823 301.533 49.121C301.958 48.0726 301.966 46.9194 301.541 45.871C301.117 44.8226 300.323 44 299.3 43.5645C298.286 43.129 297.201 43.1452 296.242 43.5161L298.719 44.5645C300.275 45.2258 301.015 47.0564 300.362 48.6532C299.709 50.2581 297.924 51.0081 296.368 50.3468ZM310.033 39.871C307.328 39.871 305.127 37.6129 305.127 34.8468C305.127 32.0806 307.328 29.8226 310.033 29.8226C312.738 29.8226 314.94 32.0806 314.94 34.8468C314.94 37.6129 312.746 39.871 310.033 39.871ZM310.041 38.6129C312.078 38.6129 313.729 36.9194 313.729 34.8387C313.729 32.75 312.078 31.0645 310.041 31.0645C308.005 31.0645 306.353 32.7581 306.353 34.8387C306.361 36.9194 308.013 38.6129 310.041 38.6129Z" fill="white"/>
<path d="M346.773 34.4205C346.682 33.5038 346.292 32.7917 345.602 32.2841C344.913 31.7765 343.977 31.5227 342.795 31.5227C341.992 31.5227 341.314 31.6364 340.761 31.8636C340.208 32.0833 339.784 32.3902 339.489 32.7841C339.201 33.178 339.057 33.625 339.057 34.125C339.042 34.5417 339.129 34.9053 339.318 35.2159C339.515 35.5265 339.784 35.7955 340.125 36.0227C340.466 36.2424 340.86 36.4356 341.307 36.6023C341.754 36.7614 342.231 36.8977 342.739 37.0114L344.83 37.5114C345.845 37.7386 346.777 38.0417 347.625 38.4205C348.473 38.7992 349.208 39.2652 349.83 39.8182C350.451 40.3712 350.932 41.0227 351.273 41.7727C351.621 42.5227 351.799 43.3826 351.807 44.3523C351.799 45.7765 351.436 47.0114 350.716 48.0568C350.004 49.0947 348.973 49.9015 347.625 50.4773C346.284 51.0455 344.667 51.3295 342.773 51.3295C340.894 51.3295 339.258 51.0417 337.864 50.4659C336.477 49.8902 335.394 49.0379 334.614 47.9091C333.841 46.7727 333.436 45.3674 333.398 43.6932H338.159C338.212 44.4735 338.436 45.125 338.83 45.6477C339.231 46.1629 339.765 46.553 340.432 46.8182C341.106 47.0758 341.867 47.2045 342.716 47.2045C343.549 47.2045 344.273 47.0833 344.886 46.8409C345.508 46.5985 345.989 46.2614 346.33 45.8295C346.67 45.3977 346.841 44.9015 346.841 44.3409C346.841 43.8182 346.686 43.3788 346.375 43.0227C346.072 42.6667 345.625 42.3636 345.034 42.1136C344.451 41.8636 343.735 41.6364 342.886 41.4318L340.352 40.7955C338.39 40.3182 336.841 39.572 335.705 38.5568C334.568 37.5417 334.004 36.1742 334.011 34.4545C334.004 33.0455 334.379 31.8144 335.136 30.7614C335.902 29.7083 336.951 28.8864 338.284 28.2955C339.617 27.7045 341.133 27.4091 342.83 27.4091C344.557 27.4091 346.064 27.7045 347.352 28.2955C348.648 28.8864 349.655 29.7083 350.375 30.7614C351.095 31.8144 351.466 33.0341 351.489 34.4205H346.773ZM356.47 31.7841V27.7273H375.584V31.7841H368.459V51H363.595V31.7841H356.47ZM380.971 51V27.7273H396.653V31.7841H385.892V37.3295H395.846V41.3864H385.892V46.9432H396.699V51H380.971ZM406.817 51H401.544L409.578 27.7273H415.919L423.942 51H418.669L412.839 33.0455H412.658L406.817 51ZM406.487 41.8523H418.942V45.6932H406.487V41.8523ZM428.983 27.7273H435.051L441.46 43.3636H441.733L448.142 27.7273H454.21V51H449.437V35.8523H449.244L443.221 50.8864H439.971L433.949 35.7955H433.755V51H428.983V27.7273Z" fill="white"/>
</svg>
