<svg width="722" height="60" viewBox="0 0 722 60" fill="none" xmlns="http://www.w3.org/2000/svg">
<rect width="722" height="60" fill="white"/>
<rect width="640" height="60" fill="#333333"/>
<path d="M291.515 50C290.219 49.9283 288.999 49.3512 288.108 48.388C287.041 47.3404 286.09 46.1775 285.269 44.9198C283.988 43.0468 282.976 40.9967 282.262 38.8315C281.454 36.5021 281.029 34.0524 281.005 31.5815C280.942 29.1571 281.53 26.7613 282.705 24.6535C283.566 23.1343 284.794 21.8656 286.271 20.9686C287.732 20.0754 289.4 19.5946 291.103 19.5754C292.387 19.653 293.648 19.9526 294.834 20.4614C295.78 20.8865 296.774 21.1854 297.794 21.3495C298.919 21.1088 300.019 20.7564 301.078 20.2973C302.33 19.7979 303.656 19.5183 305 19.4702C305.18 19.4702 305.357 19.4702 305.528 19.4912C308.476 19.5775 311.217 21.0549 312.949 23.4898C311.597 24.2277 310.473 25.3337 309.7 26.6849C308.928 28.0361 308.537 29.5796 308.573 31.1438C308.559 32.3398 308.794 33.5252 309.262 34.6218C309.73 35.7184 310.42 36.7013 311.287 37.5057C312.077 38.2733 312.996 38.8886 314 39.3218C313.794 39.9532 313.557 40.5635 313.305 41.178C312.734 42.5359 312.03 43.8312 311.203 45.0439C310.421 46.2588 309.51 47.3823 308.488 48.3943C307.556 49.3389 306.313 49.8962 305 49.9579C303.888 49.9076 302.795 49.6412 301.781 49.1729C300.686 48.6863 299.511 48.4198 298.318 48.388C297.091 48.4126 295.88 48.6777 294.751 49.1687C293.777 49.6178 292.735 49.8973 291.67 49.9958L291.515 50V50ZM298.008 19.4702C297.854 19.4702 297.699 19.4702 297.545 19.4513C297.512 19.2008 297.495 18.9484 297.493 18.6957C297.56 16.5936 298.365 14.5862 299.76 13.0389C300.541 12.1496 301.487 11.4278 302.543 10.9155C303.528 10.3981 304.603 10.0868 305.707 10C305.738 10.2757 305.738 10.5451 305.738 10.8018C305.709 12.8709 304.948 14.8593 303.594 16.3997C302.939 17.2967 302.1 18.0364 301.135 18.5668C300.17 19.0973 299.103 19.4056 298.008 19.4702V19.4702Z" fill="white"/>
<path d="M321.449 41V27.9091H325.08V41H321.449ZM323.273 26.2216C322.733 26.2216 322.27 26.0426 321.884 25.6847C321.503 25.321 321.312 24.8864 321.312 24.3807C321.312 23.8807 321.503 23.4517 321.884 23.0938C322.27 22.7301 322.733 22.5483 323.273 22.5483C323.813 22.5483 324.273 22.7301 324.653 23.0938C325.04 23.4517 325.233 23.8807 325.233 24.3807C325.233 24.8864 325.04 25.321 324.653 25.6847C324.273 26.0426 323.813 26.2216 323.273 26.2216ZM327.391 26.5881V23.5455H341.727V26.5881H336.383V41H332.735V26.5881H327.391ZM350.633 35.4261V27.9091H354.263V41H350.778V38.6222H350.641C350.346 39.3892 349.854 40.0057 349.167 40.4716C348.485 40.9375 347.653 41.1705 346.67 41.1705C345.795 41.1705 345.025 40.9716 344.36 40.5739C343.695 40.1761 343.175 39.6108 342.8 38.8778C342.431 38.1449 342.244 37.267 342.238 36.2443V27.9091H345.869V35.5966C345.874 36.3693 346.082 36.9801 346.491 37.429C346.9 37.8778 347.448 38.1023 348.136 38.1023C348.573 38.1023 348.982 38.0028 349.363 37.804C349.744 37.5994 350.05 37.2983 350.283 36.9006C350.522 36.5028 350.638 36.0114 350.633 35.4261ZM360.798 33.4318V41H357.168V27.9091H360.628V30.2188H360.781C361.071 29.4574 361.557 28.8551 362.239 28.4119C362.92 27.9631 363.747 27.7386 364.719 27.7386C365.628 27.7386 366.42 27.9375 367.097 28.3352C367.773 28.733 368.298 29.3011 368.673 30.0398C369.048 30.7727 369.236 31.6477 369.236 32.6648V41H365.605V33.3125C365.611 32.5114 365.406 31.8864 364.991 31.4375C364.577 30.983 364.006 30.7557 363.278 30.7557C362.79 30.7557 362.358 30.8608 361.983 31.071C361.614 31.2812 361.324 31.5881 361.114 31.9915C360.909 32.3892 360.804 32.8693 360.798 33.4318ZM378.063 41.2557C376.717 41.2557 375.558 40.983 374.586 40.4375C373.62 39.8864 372.876 39.108 372.353 38.1023C371.83 37.0909 371.569 35.8949 371.569 34.5142C371.569 33.1676 371.83 31.9858 372.353 30.9688C372.876 29.9517 373.612 29.1591 374.56 28.5909C375.515 28.0227 376.634 27.7386 377.918 27.7386C378.782 27.7386 379.586 27.8778 380.33 28.1562C381.08 28.429 381.734 28.8409 382.29 29.392C382.853 29.9432 383.29 30.6364 383.603 31.4716C383.915 32.3011 384.072 33.2727 384.072 34.3864V35.3835H373.018V33.1335H380.654C380.654 32.6108 380.54 32.1477 380.313 31.7443C380.086 31.3409 379.771 31.0256 379.367 30.7983C378.969 30.5653 378.506 30.4489 377.978 30.4489C377.427 30.4489 376.938 30.5767 376.512 30.8324C376.092 31.0824 375.762 31.4205 375.523 31.8466C375.285 32.267 375.163 32.7358 375.157 33.2528V35.392C375.157 36.0398 375.276 36.5994 375.515 37.071C375.759 37.5426 376.103 37.9062 376.546 38.1619C376.989 38.4176 377.515 38.5455 378.123 38.5455C378.526 38.5455 378.896 38.4886 379.231 38.375C379.566 38.2614 379.853 38.0909 380.092 37.8636C380.33 37.6364 380.512 37.358 380.637 37.0284L383.995 37.25C383.825 38.0568 383.475 38.7614 382.947 39.3636C382.424 39.9602 381.748 40.4261 380.918 40.7614C380.094 41.0909 379.143 41.2557 378.063 41.2557ZM397.333 31.642L394.009 31.8466C393.952 31.5625 393.83 31.3068 393.643 31.0795C393.455 30.8466 393.208 30.6619 392.901 30.5256C392.6 30.3835 392.239 30.3125 391.819 30.3125C391.256 30.3125 390.782 30.4318 390.396 30.6705C390.009 30.9034 389.816 31.2159 389.816 31.608C389.816 31.9205 389.941 32.1847 390.191 32.4006C390.441 32.6165 390.87 32.7898 391.478 32.9205L393.847 33.3977C395.12 33.6591 396.069 34.0795 396.694 34.6591C397.319 35.2386 397.631 36 397.631 36.9432C397.631 37.8011 397.379 38.554 396.873 39.2017C396.373 39.8494 395.685 40.3551 394.81 40.7188C393.941 41.0767 392.938 41.2557 391.802 41.2557C390.069 41.2557 388.688 40.8949 387.66 40.1733C386.637 39.446 386.038 38.4574 385.862 37.2074L389.433 37.0199C389.54 37.5483 389.802 37.9517 390.217 38.2301C390.631 38.5028 391.163 38.6392 391.81 38.6392C392.447 38.6392 392.958 38.517 393.344 38.2727C393.737 38.0227 393.935 37.7017 393.941 37.3097C393.935 36.9801 393.796 36.7102 393.523 36.5C393.251 36.2841 392.83 36.1193 392.262 36.0057L389.995 35.554C388.717 35.2983 387.765 34.8551 387.14 34.2244C386.521 33.5937 386.211 32.7898 386.211 31.8125C386.211 30.9716 386.438 30.2472 386.893 29.6392C387.353 29.0312 387.998 28.5625 388.827 28.233C389.663 27.9034 390.64 27.7386 391.759 27.7386C393.413 27.7386 394.714 28.0881 395.663 28.7869C396.617 29.4858 397.174 30.4375 397.333 31.642Z" fill="white"/>
<path d="M681 9C675.217 9 670.272 11.0543 666.163 15.163C662.054 19.2717 660 24.2174 660 30C660 35.7826 662.054 40.7283 666.163 44.837C670.272 48.9457 675.217 51 681 51C686.783 51 691.728 48.9457 695.837 44.837C699.946 40.7283 702 35.7826 702 30C702 24.2174 699.946 19.2717 695.837 15.163C691.728 11.0543 686.783 9 681 9ZM681 46.8C676.374 46.8 672.417 45.1565 669.13 41.8696C665.843 38.5826 664.2 34.6261 664.2 30C664.2 25.3739 665.843 21.4174 669.13 18.1304C672.417 14.8435 676.374 13.2 681 13.2C685.626 13.2 689.583 14.8435 692.87 18.1304C696.157 21.4174 697.8 25.3739 697.8 30C697.8 34.6261 696.157 38.5826 692.87 41.8696C689.583 45.1565 685.626 46.8 681 46.8ZM688.67 35.6609C688.73 36.513 688.472 37.3043 687.893 38.0348C687.315 38.7652 686.57 39.1913 685.657 39.313C684.804 39.3739 684.043 39.1304 683.374 38.5826C682.704 38.0348 682.309 37.3348 682.187 36.4826C682.126 35.5696 682.4 34.763 683.009 34.063C683.617 33.363 684.348 32.9522 685.2 32.8304C685.687 32.7696 686.235 32.8304 686.843 33.013V24.2478L678.352 25.8V36.8478C678.413 37.7609 678.17 38.5674 677.622 39.2674C677.074 39.9674 676.343 40.3783 675.43 40.5C674.517 40.5609 673.726 40.3174 673.057 39.7696C672.387 39.2217 671.991 38.5217 671.87 37.6696C671.809 36.7565 672.067 35.9348 672.646 35.2043C673.224 34.4739 673.97 34.0783 674.883 34.0174C675.37 33.9565 675.917 34.0174 676.526 34.2V21.6L688.67 19.5V35.6609Z" fill="url(#paint0_radial_334_106)"/>
<defs>
<radialGradient id="paint0_radial_334_106" cx="0" cy="0" r="1" gradientUnits="userSpaceOnUse" gradientTransform="translate(681 30) rotate(90) scale(21)">
<stop stop-color="#F01CC1"/>
<stop offset="0.348958" stop-color="#590EFB" stop-opacity="0.651042"/>
<stop offset="1" stop-color="#D113B3" stop-opacity="0"/>
</radialGradient>
</defs>
</svg>
